<?xml version="1.0" encoding="UTF-8"?>
<!DOCTYPE svg PUBLIC "-//W3C//DTD SVG 1.0//EN" "http://www.w3.org/TR/2001/REC-SVG-20010904/DTD/svg10.dtd">
<!-- Creator: CorelDRAW X7 -->
<svg xmlns="http://www.w3.org/2000/svg" xml:space="preserve" width="130mm" height="65mm" version="1.0" shape-rendering="geometricPrecision" text-rendering="geometricPrecision" image-rendering="optimizeQuality" fill-rule="evenodd" clip-rule="evenodd"
viewBox="0 0 13000 6500"
 xmlns:xlink="http://www.w3.org/1999/xlink">
 <g id="Vrstva_x0020_1">
  <metadata id="CorelCorpID_0Corel-Layer"/>
  <path fill="#E31E25" d="M3787 4607l0 0c-403,0 -729,-327 -729,-729 0,-402 326,-729 729,-729 402,0 728,327 728,729 0,402 -326,729 -728,729zm3772 736l-108 0 -1084 -1782 0 1782 -791 0 0 -2903 108 0 683 0 108 0 1084 1782 0 -1782 790 0 0 2903 -108 0 -682 0zm3309 -1220l-733 0 0 -514 724 0 770 0 26 0c15,87 23,177 23,269 0,852 -690,1544 -1543,1544 -852,0 -1543,-692 -1543,-1544 0,-852 691,-1543 1543,-1543 654,0 1212,406 1437,980l-909 0c-138,-130 -324,-210 -528,-210 -427,0 -773,346 -773,773 0,427 346,773 773,773 341,0 631,-221 733,-528zm2014 -2580l-901 0 0 -898 901 0 0 898zm0 3873l-901 0 0 -2990 901 0 0 2990zm-9095 -3081c-853,0 -1544,691 -1544,1543 0,232 51,451 143,649l-1362 0 0 -2087 -897 0 0 2087 0 816 897 0 1046 0 408 -646c273,435 757,725 1309,725 852,0 1543,-692 1543,-1544 0,-852 -691,-1543 -1543,-1543z"/>
 </g>
</svg>
